<?xml version="1.0" encoding="UTF-8"?>
<svg width="192" height="192" viewBox="0 0 192 192" xmlns="http://www.w3.org/2000/svg">
    <g>
        <path id="Path" fill="none" stroke="#ffffff" stroke-width="18.5" stroke-linecap="round" stroke-linejoin="round" d="M 59 31.25 L 40.5 31.25 C 30.282728 31.25 22 39.53273 22 49.75 L 22 160.75 C 22 170.96756 30.282728 179.25 40.5 179.25 L 133 179.25 C 143.21756 179.25 151.5 170.96756 151.5 160.75 L 151.5 151.5 M 59 31.25 C 59 41.46727 67.282722 49.75 77.5 49.75 L 96 49.75 C 106.217552 49.75 114.5 41.46727 114.5 31.25 M 59 31.25 C 59 21.03273 67.282722 12.75 77.5 12.75 L 96 12.75 C 106.217552 12.75 114.5 21.03273 114.5 31.25 M 114.5 31.25 L 133 31.25 C 143.21756 31.25 151.5 39.53273 151.5 49.75 L 151.5 77.5 M 170 114.5 L 77.5 114.5 M 77.5 114.5 L 105.25 86.75 M 77.5 114.5 L 105.25 142.25"/>
    </g>
</svg>
