<?xml version="1.0" encoding="UTF-8"?>
<svg width="512" height="512" viewBox="0 0 512 512" xmlns="http://www.w3.org/2000/svg">
  <g>
    <path fill="#ffffff" stroke="none" d="M 455.100006 97 L 192.100006 358 C 181.800003 369.899994 163.800003 371.100006 152 360.799988 C 140.199997 350.5 138.899994 332.5 149.199997 320.700012 L 152.300003 317.600006 L 414.700012 56.899994 L 312.899994 56.899994 C 297.200012 56.899994 284.5 44.200012 284.5 28.5 C 284.5 12.799988 297.200012 0 312.899994 0 L 483.600006 0 C 499.299988 0 512 12.700012 512 28.399994 L 512 199.100006 C 512 214.799988 499.299988 227.5 483.600006 227.5 C 467.899994 227.5 455.200012 214.799988 455.200012 199.100006 L 455.200012 97 Z M 398.200012 327.899994 C 398.200012 312.200012 410.899994 299.5 426.600006 299.5 C 442.299988 299.5 455 312.200012 455 327.899994 L 455 455.100006 C 455 486.5 429.5 512 398.100006 512 L 56.900002 512 C 25.5 512 0 486.5 0 455.100006 L 0 113.799988 C 0 82.5 25.6 56.899994 56.900002 56.899994 L 183.100006 56.899994 C 198.800003 56.899994 211.5 69.600006 211.5 85.299988 C 211.5 101 198.800003 113.700012 183.100006 113.700012 L 56.900002 113.700012 L 56.900002 455 L 398.200012 455 L 398.200012 327.899994 Z"/>
  </g>
</svg>
