<?xml version="1.0" encoding="UTF-8"?>
<svg width="158" height="48" fill="none" version="1.1" viewBox="0 0 158 48" xmlns="http://www.w3.org/2000/svg">
 <path d="m40 33v-18c0-2.2091-1.7909-4-4-4h-24c-2.2091 0-4 1.7909-4 4v18c0 2.2091 1.7909 4 4 4h24c2.2091 0 4-1.7909 4-4z" stroke="#fff" stroke-linecap="round" stroke-width="3"/>
 <path d="m12.752 25.546 0.6546-0.3155c0.5755-0.2774 1.2489-0.2632 1.8122 0.0383l2.4457 1.3092c0.1358 0.0726 0.2975 0.0787 0.4383 0.0164l3.0925-1.3679c0.1532-0.0678 0.1977-0.2642 0.0887-0.3914l-4.5861-5.3504c-0.2307-0.2691-0.1158-0.6863 0.2202-0.7993l0.4009-0.1348c0.918-0.3088 1.9287-0.1553 2.7137 0.412l5.7016 4.1207c0.072 0.052 0.1663 0.0619 0.2476 0.0259l3.4261-1.5161c0.9703-0.4294 2.0715-0.4556 3.0612-0.073l1.0718 0.4145c0.6232 0.2409 0.644 1.1151 0.0329 1.3854l-13.82 6.1132-2.1299 0.9421c-0.3744 0.1656-0.8119 0.0863-1.1044-0.2003l-3.8999-3.8215c-0.2475-0.2425-0.1793-0.6571 0.1328-0.8075z" fill="#fff"/>
 <rect x="27" y="29" width="8" height="3" rx=".5" fill="#3df91e"/>
 <path d="m57.93 33.74v-16.694h5.7287v-3.0456h-14.659v3.0456h5.7007v16.694zm76.007 0.3382c4.325 0 6.908-3.0456 6.908-6.9089 0-3.8634-2.583-6.9089-6.908-6.9089s-6.908 3.0455-6.908 6.9089c0 3.8633 2.583 6.9089 6.908 6.9089zm0-2.7354c-2.471 0-3.847-1.7766-3.847-4.1735 0-2.397 1.376-4.1736 3.847-4.1736s3.847 1.7766 3.847 4.1736c0 2.3969-1.376 4.1735-3.847 4.1735zm-64.796-14.918c0 1.269-0.9267 2.2842-2.2746 2.2842-1.348 0-2.2747-1.0152-2.2747-2.2842s0.9267-2.2842 2.2747-2.2842c1.3479 0 2.2746 1.0152 2.2746 2.2842zm-0.7582 4.1735v13.141h-3.0329v-13.141zm49.582-1.8893c1.347 0 2.274-1.0152 2.274-2.2842s-0.927-2.2842-2.274-2.2842c-1.348 0-2.275 1.0152-2.275 2.2842s0.927 2.2842 2.275 2.2842zm1.516 15.03v-13.141h-3.033v13.141zm-45.228-7.2191v7.2191h-3.0609v-13.141h3.0609v1.8329c0.8144-1.4099 2.3309-2.1713 4.2685-2.1713 3.1452 0 4.774 1.7766 4.774 5.2169v8.2625h-3.061v-6.8525c0-2.7918-0.7301-4.0044-2.8643-4.0044-1.9939 0-3.1172 1.3254-3.1172 3.6378zm20.09 0.8744c0 2.256-1.0109 3.9762-3.1452 3.9762-2.1904 0-2.8363-1.4664-2.8363-3.4122v-7.3601h-3.061v8.0087c0 3.1584 1.6007 5.4707 4.8302 5.4707 1.9377 0 3.3979-0.7614 4.2123-2.1713v1.6637c0 2.7918-1.3198 3.8916-3.1452 3.8916-1.9658 0-2.6678-0.7896-2.8082-2.2278h-3.0891c0.0281 1.4382 0.5336 2.5944 1.4603 3.4122 1.0391 0.8741 2.5555 1.3535 4.4932 1.3535 1.8534 0 3.3698-0.5358 4.437-1.5227 1.0952-1.0716 1.713-2.6226 1.713-4.6812v-13.197h-3.061zm6.3557 6.3449v-19.74h7.245c3.932 0 6.74 2.8764 6.74 6.9089s-2.808 6.9089-6.74 6.9089h-4.015v5.9219zm3.23-16.835v8.0086h3.819c2.134 0 3.707-1.6919 3.707-4.0043s-1.573-4.0043-3.707-4.0043zm21.274 16.835v-19.74h-3.061v19.74zm23.242-2.5945c-1.207 0-1.909-0.282-1.909-2.5662v-5.4143h3.005v-2.5662h-3.005v-3.9761h-3.061v3.9761h-2.219v2.5662h2.219v6.1193c0 4.4273 2.752 4.6247 4.24 4.6247 0.899 0 1.798-0.0846 2.275-0.1692v-2.7071c-0.309 0.0564-1.067 0.1128-1.545 0.1128z" clip-rule="evenodd" fill="#fff" fill-rule="evenodd"/>
</svg>
