<?xml version="1.0" encoding="UTF-8"?>
<svg viewBox="0 0 122 111" xmlns="http://www.w3.org/2000/svg">
    <path fill="#fec901" stroke="none" d="M 2.35 83.879997 L 45.279999 9.659996 L 45.450001 9.389999 L 45.450001 9.389999 C 47.234215 6.483871 49.642334 4.010849 52.5 2.150002 C 55.207909 0.413208 58.353043 -0.519585 61.57 -0.540001 C 64.803032 -0.54406 67.967735 0.390411 70.68 2.150002 C 73.526222 4.016884 75.918114 6.497612 77.68 9.409996 C 77.806669 9.623334 77.926669 9.833336 78.040001 10.040001 L 120.269997 83.379997 L 120.510002 83.82 L 120.510002 83.82 C 122.090393 86.983009 122.902382 90.474213 122.879997 94.010002 C 122.85936 96.930092 122.113701 99.799332 120.709999 102.360001 C 119.130531 105.217873 116.711479 107.521729 113.779999 108.959999 C 113.589996 109.059998 113.389999 109.139999 113.199997 109.220001 C 110.329857 110.469025 107.218651 111.066681 104.089996 110.970001 L 104.089996 110.970001 L 17.610001 110.970001 C 17.389999 110.970001 17.17 110.970001 16.959999 110.970001 C 14.841906 110.953011 12.743292 110.563751 10.76 109.82 C 7.606224 108.625313 4.896801 106.488503 3 103.699997 C 1.089341 100.870239 0.046661 97.54409 0 94.129997 C -0.049368 91.142342 0.483903 88.173691 1.57 85.389999 C 1.770016 84.859734 2.028264 84.353294 2.34 83.879997 Z"/>
    <path fill="#fec901" stroke="none" d="M 9 88.209999 L 52.119999 13.620003 C 57.360001 5.370003 65.660004 5.159996 70.989998 13.620003 L 113.419998 87.309998 C 116.809998 94.120003 115.129997 103.309998 104.089996 103.080002 L 17.610001 103.080002 C 10.35 103.260002 5.67 96.889999 9 88.209999 Z"/>
    <path fill="#000000" stroke="none" d="M 65.720001 69.500946 C 65.529999 74.161484 57.41 74.171219 57.23 69.500946 C 56.41 61.512829 54.310001 40.953888 54.369999 33.452263 C 54.439999 31.136581 56.369999 29.764687 58.93 29.239281 C 60.58054 28.920242 62.279461 28.920242 63.93 29.239281 C 66.540001 29.784142 68.580002 31.185226 68.580002 33.55928 L 68.580002 33.792801 Z"/>
    <path fill="#000000" stroke="none" d="M 69 91.5 C 69 87.357864 65.642136 84 61.5 84 C 57.357864 84 54 87.357864 54 91.5 C 54 95.642136 57.357864 99 61.5 99 C 65.642136 99 69 95.642136 69 91.5 Z"/>
</svg>
